<svg xmlns="http://www.w3.org/2000/svg" width="18" height="18" viewBox="0 0 48 48">
  <path fill="#4285F4" d="M24 9.5c3.5 0 6.5 1.2 9 3.5l6.7-6.7C35.5 2.5 30.2 0 24 0 14.6 0 6.4 5.4 2.4 13.3l7.9 6.1C12.3 13.4 17.7 9.5 24 9.5z"></path>
  <path fill="#34A853" d="M46.5 24.5c0-1.6-.2-3.1-.5-4.5H24v9h12.7c-.6 3.1-2.5 5.8-5.3 7.6l8.2 6.3c4.8-4.5 7.9-11.2 7.9-18.4z"></path>
  <path fill="#FBBC05" d="M10.3 28.4c-1-3-1-6.2 0-9.2l-7.9-6.1c-3.2 6.3-3.2 13.9 0 20.2l7.9-6.1z"></path>
  <path fill="#EA4335" d="M24 48c6.5 0 11.9-2.1 15.8-5.8l-8.2-6.3c-2.2 1.5-5 2.4-7.6 2.4-6.3 0-11.7-3.9-13.7-9.3l-7.9 6.1C6.4 42.6 14.6 48 24 48z"></path>
</svg>
